<svg xmlns="http://www.w3.org/2000/svg" width="71.46" height="69.927"  xmlns:v="https://vecta.io/nano"><path d="M60.92 9.459A37.36 37.36 0 0 0 35.73 0a37.36 37.36 0 0 0-25.19 9.459C3.888 15.291.052 23.692 0 32.538c.01 6.565 2.15 12.95 6.1 18.194l-3.07 19.2 19.419-7.173c4.257 1.546 8.752 2.331 13.281 2.318 9.28.085 18.259-3.287 25.19-9.459 6.652-5.832 10.488-14.234 10.54-23.08-.052-8.846-3.888-17.248-10.54-23.08zM38.861 41.882l-7.9-6.179-18.891 7.479 21.618-21.5 7.994 6.383 17.293-6.7zm0 0" fill="#019af7"/></svg>