<svg xmlns="http://www.w3.org/2000/svg" width="45.964" height="76.606" viewBox="0 0 45.964 76.606"><defs><style>.a{fill:#fff;}</style></defs><g transform="translate(-96 0)"><g transform="translate(96 0)"><path class="a" d="M130.09,0a11.807,11.807,0,0,0-4.676.96,16.411,16.411,0,0,1-12.872,0A11.874,11.874,0,0,0,96,11.874a32.282,32.282,0,0,0,3.34,14.263l1.819,6.149a1.277,1.277,0,0,0,1.224.91h3.83V39.58a1.277,1.277,0,0,0,1.277,1.277h3.83v2.971l-3.69-.41-.281,2.538,3.971.442v5.09l-3.69-.41-.281,2.538,3.971.442v5.09l-3.69-.41-.281,2.538,3.971.442v5.09l-3.69-.41-.281,2.538,4.056.451v.031L113.96,75.8a1.277,1.277,0,0,0,1.191.8h7.661A1.277,1.277,0,0,0,124,75.8l1.915-4.8,4.414.49.281-2.538-3.966-.442v-5.09l3.69.41.281-2.538-3.971-.442V55.76l3.69.41.281-2.538-3.971-.442V48.1l3.69.41.281-2.538-3.971-.442V40.857h3.83a1.277,1.277,0,0,0,1.277-1.277V33.2h3.83a1.277,1.277,0,0,0,1.224-.914l1.819-6.149a32.282,32.282,0,0,0,3.34-14.259A11.883,11.883,0,0,0,130.09,0Zm-8.146,74.053h-5.928l-1.738-4.341,9.008,1Zm2.145-5.825-10.214-1.135V62l10.214,1.135Zm0-7.661-10.214-1.135v-5.09l10.214,1.135Zm0-7.661-10.214-1.135v-5.09l10.214,1.135Zm0-7.661-10.214-1.135V40.857h10.214ZM129.2,38.3H108.768V33.2H129.2Zm7.092-13.211a1.3,1.3,0,0,0-.082.208l-1.581,5.342H103.338L101.757,25.3a1.294,1.294,0,0,0-.082-.208,29.7,29.7,0,0,1-3.122-13.218A9.32,9.32,0,0,1,111.54,3.307a18.969,18.969,0,0,0,14.883,0,9.32,9.32,0,0,1,12.987,8.567A29.7,29.7,0,0,1,136.288,25.092Z" transform="translate(-96 0)"/></g><g transform="translate(101.107 5.276)"><path class="a" d="M132.469,33.056A8.406,8.406,0,0,0,128,40.3v1.526h2.554V40.293a5.888,5.888,0,0,1,3.192-5.027Z" transform="translate(-128 -33.056)"/></g></g></svg>