<svg xmlns="http://www.w3.org/2000/svg" width="83.371" height="71.268" viewBox="0 0 83.371 71.268"><defs><style>.a{fill:#fff;}</style></defs><g transform="translate(0 -36)"><g transform="translate(16.136 56.17)"><g transform="translate(0 0)"><path class="a" d="M98.689,156.45V156H96v.45c0,.771.02,1.541.059,2.307l2.687-.137C98.71,157.9,98.689,157.177,98.689,156.45Z" transform="translate(-96 -156)"/></g></g><g transform="translate(16.424 61.396)"><g transform="translate(0 0)"><path class="a" d="M100.384,187.088l-2.672.305a44.97,44.97,0,0,0,6.827,19.142l2.262-1.455A42.3,42.3,0,0,1,100.384,187.088Z" transform="translate(-97.712 -187.088)"/></g></g><g transform="translate(32.301 43.009)"><path class="a" d="M209.434,77.7a14.12,14.12,0,0,1-15.761,0l-1.5,2.229a16.812,16.812,0,0,0,18.771,0Z" transform="translate(-192.168 -77.696)"/></g><g transform="translate(0 81.719)"><g transform="translate(0 0)"><path class="a" d="M12.1,308H9.413A9.425,9.425,0,0,1,0,317.413V320.1a9.425,9.425,0,0,1,9.413,9.413H12.1a9.425,9.425,0,0,1,9.413-9.413v-2.689A9.425,9.425,0,0,1,12.1,308Zm-1.345,16a12.162,12.162,0,0,0-5.238-5.238,12.162,12.162,0,0,0,5.238-5.238A12.162,12.162,0,0,0,16,318.758,12.162,12.162,0,0,0,10.758,324Z" transform="translate(0 -308)"/></g></g><g transform="translate(10.758 36)"><path class="a" d="M127.2,46.758h-2.575A17.176,17.176,0,0,0,108.781,36a16.45,16.45,0,0,0-9.069,2.607,8.77,8.77,0,0,1-9.569,0A16.443,16.443,0,0,0,81.075,36,17.094,17.094,0,0,0,64,53.075v3.546a50.074,50.074,0,0,0,7.97,27.132,47.407,47.407,0,0,1,6.124,14.16l1.463,5.855a4.62,4.62,0,0,0,9.051-.434l3.016-20.114a3.34,3.34,0,0,1,6.606,0l3.016,20.114a4.62,4.62,0,0,0,9.052.434l1.464-5.855a47.381,47.381,0,0,1,6.125-14.16,50.569,50.569,0,0,0,6.617-15.62c0,.047.005.093.005.14H127.2a9.425,9.425,0,0,1,9.413-9.413V56.17A9.425,9.425,0,0,1,127.2,46.758ZM115.625,82.3a50.092,50.092,0,0,0-6.471,14.964l-1.466,5.855a1.93,1.93,0,0,1-3.781-.183l-3.016-20.114a6.031,6.031,0,0,0-11.927,0l-3.016,20.114a1.931,1.931,0,0,1-3.784.183L80.7,97.261A50.028,50.028,0,0,0,74.229,82.3a47.4,47.4,0,0,1-7.54-25.677V53.075A14.4,14.4,0,0,1,81.075,38.689a13.754,13.754,0,0,1,7.591,2.166,11.43,11.43,0,0,0,12.523,0,13.762,13.762,0,0,1,7.592-2.166A14.436,14.436,0,0,1,123,50.878l.056.875A9.408,9.408,0,0,1,115.1,56.17V58.86a9.4,9.4,0,0,1,7.658,3.96A47.777,47.777,0,0,1,115.625,82.3Zm10.23-19.545a12.161,12.161,0,0,0-5.238-5.238,12.161,12.161,0,0,0,5.238-5.238,12.161,12.161,0,0,0,5.238,5.238A12.161,12.161,0,0,0,125.856,62.753Z" transform="translate(-64 -36)"/></g></g></svg>